{
  "accessors": [
    {
      "bufferView": 2,
      "componentType": 5126,
      "count": 2290,
      "max": [
        1.0853990316390991,
        2.225847005844116,
        1.1378569602966309
      ],
      "min": [
        -1.0853990316390991,
        -2.1728808879852295,
        0.12171400338411331
      ],
      "type": "VEC3"
    },
    {
      "bufferView": 2,
      "byteOffset": 27480,
      "componentType": 5126,
      "count": 2290,
      "max": [
        1.0,
        0.9990711808204651,
        1.0
      ],
      "min": [
        -1.0,
        -1.0,
        -1.0
      ],
      "type": "VEC3"
    },
    {
      "bufferView": 3,
      "componentType": 5126,
      "count": 2290,
      "max": [
        1.0,
        0.996005654335022,
        0.9999091625213623,
        1.0
      ],
      "min": [
        -1.0,
        -0.9948805570602417,
        -1.0,
        1.0
      ],
      "type": "VEC4"
    },
    {
      "bufferView": 1,
      "componentType": 5126,
      "count": 2290,
      "max": [
        1.0,
        0.9891210198402405
      ],
      "min": [
        0.0,
        0.0
      ],
      "type": "VEC2"
    },
    {
      "bufferView": 0,
      "componentType": 5125,
      "count": 7308,
      "type": "SCALAR"
    },
    {
      "bufferView": 2,
      "byteOffset": 54960,
      "componentType": 5126,
      "count": 556,
      "max": [
        0.9181939959526062,
        1.3842370510101318,
        0.5437290072441101
      ],
      "min": [
        -0.9212560057640076,
        -1.1407760381698608,
        0.16444499790668488
      ],
      "type": "VEC3"
    },
    {
      "bufferView": 2,
      "byteOffset": 61632,
      "componentType": 5126,
      "count": 556,
      "max": [
        1.0,
        1.0,
        0.9971686005592346
      ],
      "min": [
        -1.0,
        -1.0,
        -0.9971686005592346
      ],
      "type": "VEC3"
    },
    {
      "bufferView": 3,
      "byteOffset": 36640,
      "componentType": 5126,
      "count": 556,
      "max": [
        1.0,
        0.9999987483024597,
        0.9999789595603943,
        1.0
      ],
      "min": [
        -1.0,
        -1.0,
        -0.9999789595603943,
        1.0
      ],
      "type": "VEC4"
    },
    {
      "bufferView": 1,
      "byteOffset": 18320,
      "componentType": 5126,
      "count": 556,
      "max": [
        0.8357549905776978,
        0.9997689723968506
      ],
      "min": [
        0.00023099999816622585,
        0.00023099999816622585
      ],
      "type": "VEC2"
    },
    {
      "bufferView": 0,
      "byteOffset": 29232,
      "componentType": 5125,
      "count": 1248,
      "type": "SCALAR"
    },
    {
      "bufferView": 2,
      "byteOffset": 68304,
      "componentType": 5126,
      "count": 430,
      "max": [
        0.7294210195541382,
        0.49570998549461365,
        1.108104944229126
      ],
      "min": [
        -0.7294210195541382,
        -1.3223329782485962,
        0.737758994102478
      ],
      "type": "VEC3"
    },
    {
      "bufferView": 2,
      "byteOffset": 73464,
      "componentType": 5126,
      "count": 430,
      "max": [
        0.896999180316925,
        0.9810623526573181,
        0.9817020893096924
      ],
      "min": [
        -0.896999180316925,
        -0.9107257723808289,
        -0.9817114472389221
      ],
      "type": "VEC3"
    },
    {
      "bufferView": 3,
      "byteOffset": 45536,
      "componentType": 5126,
      "count": 430,
      "max": [
        0.8770646452903748,
        0.997979462146759,
        0.9849078059196472,
        1.0
      ],
      "min": [
        -0.8761166930198669,
        -0.3533850908279419,
        -0.9106864333152771,
        1.0
      ],
      "type": "VEC4"
    },
    {
      "bufferView": 1,
      "byteOffset": 22768,
      "componentType": 5126,
      "count": 430,
      "max": [
        0.9459549784660339,
        1.0
      ],
      "min": [
        0.0,
        0.0
      ],
      "type": "VEC2"
    },
    {
      "bufferView": 0,
      "byteOffset": 34224,
      "componentType": 5125,
      "count": 1800,
      "type": "SCALAR"
    },
    {
      "bufferView": 2,
      "byteOffset": 78624,
      "componentType": 5126,
      "count": 5954,
      "max": [
        1.1656869649887085,
        2.2452030181884766,
        1.1867369413375854
      ],
      "min": [
        -1.1656869649887085,
        -2.1693060398101807,
        0.0833749994635582
      ],
      "type": "VEC3"
    },
    {
      "bufferView": 2,
      "byteOffset": 150072,
      "componentType": 5126,
      "count": 5954,
      "max": [
        1.0,
        1.0,
        1.0
      ],
      "min": [
        -1.0,
        -1.0,
        -1.0
      ],
      "type": "VEC3"
    },
    {
      "bufferView": 3,
      "byteOffset": 52416,
      "componentType": 5126,
      "count": 5954,
      "max": [
        1.0,
        1.0,
        1.0,
        1.0
      ],
      "min": [
        -1.0,
        -1.0,
        -1.0,
        1.0
      ],
      "type": "VEC4"
    },
    {
      "bufferView": 1,
      "byteOffset": 26208,
      "componentType": 5126,
      "count": 5954,
      "max": [
        1.0,
        0.999176025390625
      ],
      "min": [
        0.0,
        0.0
      ],
      "type": "VEC2"
    },
    {
      "bufferView": 0,
      "byteOffset": 41424,
      "componentType": 5125,
      "count": 15906,
      "type": "SCALAR"
    },
    {
      "bufferView": 2,
      "byteOffset": 221520,
      "componentType": 5126,
      "count": 7722,
      "max": [
        1.0819040536880493,
        1.8702670335769653,
        0.73300701379776
      ],
      "min": [
        -1.0819040536880493,
        -1.596582055091858,
        -0.01589900068938732
      ],
      "type": "VEC3"
    },
    {
      "bufferView": 2,
      "byteOffset": 314184,
      "componentType": 5126,
      "count": 7722,
      "max": [
        1.0,
        1.0,
        1.0
      ],
      "min": [
        -1.0,
        -1.0,
        -1.0
      ],
      "type": "VEC3"
    },
    {
      "bufferView": 3,
      "byteOffset": 147680,
      "componentType": 5126,
      "count": 7722,
      "max": [
        1.0,
        0.9975684881210327,
        0.9963535070419312,
        1.0
      ],
      "min": [
        -1.0,
        -0.999996542930603,
        -0.9999998807907104,
        1.0
      ],
      "type": "VEC4"
    },
    {
      "bufferView": 1,
      "byteOffset": 73840,
      "componentType": 5126,
      "count": 7722,
      "max": [
        1.0,
        0.9559710025787354
      ],
      "min": [
        0.0,
        0.0
      ],
      "type": "VEC2"
    },
    {
      "bufferView": 0,
      "byteOffset": 105048,
      "componentType": 5125,
      "count": 21720,
      "type": "SCALAR"
    }
  ],
  "asset": {
    "extras": {
      "author": "Ajay Gawde (https://sketchfab.com/aagawde)",
      "license": "CC-BY-4.0 (http://creativecommons.org/licenses/by/4.0/)",
      "source": "https://sketchfab.com/3d-models/pagani-zonda-cinque-71a48cb9822a4289a90f29f644ee564e",
      "title": "Pagani Zonda Cinque"
    },
    "generator": "Sketchfab-14.60.0",
    "version": "2.0"
  },
  "bufferViews": [
    {
      "buffer": 0,
      "byteLength": 191928,
      "name": "floatBufferViews",
      "target": 34963
    },
    {
      "buffer": 0,
      "byteLength": 135616,
      "byteOffset": 191928,
      "byteStride": 8,
      "name": "floatBufferViews",
      "target": 34962
    },
    {
      "buffer": 0,
      "byteLength": 406848,
      "byteOffset": 327544,
      "byteStride": 12,
      "name": "floatBufferViews",
      "target": 34962
    },
    {
      "buffer": 0,
      "byteLength": 271232,
      "byteOffset": 734392,
      "byteStride": 16,
      "name": "floatBufferViews",
      "target": 34962
    }
  ],
  "buffers": [
    {
      "byteLength": 1005624,
      "uri": "scene.bin"
    }
  ],
  "extensionsUsed": [
    "KHR_materials_clearcoat",
    "KHR_materials_specular"
  ],
  "images": [
    {
      "uri": "textures/Details_baseColor.png"
    },
    {
      "uri": "textures/Details_metallicRoughness.png"
    },
    {
      "uri": "textures/Details_emissive.png"
    },
    {
      "uri": "textures/Details_normal.png"
    },
    {
      "uri": "textures/Material_baseColor.png"
    },
    {
      "uri": "textures/Material_metallicRoughness.png"
    },
    {
      "uri": "textures/Material_normal.png"
    },
    {
      "uri": "textures/PGNI_Breaks_baseColor.png"
    },
    {
      "uri": "textures/PGNI_Breaks_metallicRoughness.png"
    },
    {
      "uri": "textures/PGNI_Breaks_normal.png"
    },
    {
      "uri": "textures/wheels_baseColor.png"
    },
    {
      "uri": "textures/wheels_metallicRoughness.png"
    },
    {
      "uri": "textures/wheels_emissive.png"
    },
    {
      "uri": "textures/wheels_normal.png"
    },
    {
      "uri": "textures/windows_baseColor.png"
    },
    {
      "uri": "textures/windows_metallicRoughness.png"
    },
    {
      "uri": "textures/windows_emissive.png"
    },
    {
      "uri": "textures/windows_normal.png"
    }
  ],
  "materials": [
    {
      "alphaMode": "BLEND",
      "doubleSided": true,
      "emissiveFactor": [
        1.0,
        1.0,
        1.0
      ],
      "emissiveTexture": {
        "index": 2
      },
      "name": "Details",
      "normalTexture": {
        "index": 3
      },
      "pbrMetallicRoughness": {
        "baseColorTexture": {
          "index": 0
        },
        "metallicRoughnessTexture": {
          "index": 1
        },
        "roughnessFactor": 0.6
      }
    },
    {
      "doubleSided": true,
      "name": "Material",
      "normalTexture": {
        "index": 6
      },
      "pbrMetallicRoughness": {
        "baseColorTexture": {
          "index": 4
        },
        "metallicFactor": 0.0,
        "metallicRoughnessTexture": {
          "index": 5
        },
        "roughnessFactor": 0.6
      }
    },
    {
      "name": "PGNI_Breaks",
      "normalTexture": {
        "index": 9
      },
      "pbrMetallicRoughness": {
        "baseColorTexture": {
          "index": 7
        },
        "metallicFactor": 0.0,
        "metallicRoughnessTexture": {
          "index": 8
        },
        "roughnessFactor": 0.6
      }
    },
    {
      "doubleSided": true,
      "emissiveFactor": [
        1.0,
        1.0,
        1.0
      ],
      "emissiveTexture": {
        "index": 12
      },
      "name": "wheels",
      "normalTexture": {
        "index": 13
      },
      "pbrMetallicRoughness": {
        "baseColorTexture": {
          "index": 10
        },
        "metallicRoughnessTexture": {
          "index": 11
        },
        "roughnessFactor": 0.6
      }
    },
    {
      "alphaMode": "BLEND",
      "doubleSided": true,
      "emissiveFactor": [
        1.0,
        1.0,
        1.0
      ],
      "emissiveTexture": {
        "index": 16
      },
      "extensions": {
        "KHR_materials_clearcoat": {
          "clearcoatFactor": 0.9859077665760504,
          "clearcoatRoughnessFactor": 0.04
        },
        "KHR_materials_specular": {
          "specularColorFactor": [
            1.0,
            1.0,
            1.0
          ],
          "specularFactor": 0.32152478940888196
        }
      },
      "name": "windows",
      "normalTexture": {
        "index": 17
      },
      "pbrMetallicRoughness": {
        "baseColorFactor": [
          1.0,
          1.0,
          1.0,
          0.35
        ],
        "baseColorTexture": {
          "index": 14
        },
        "metallicRoughnessTexture": {
          "index": 15
        }
      }
    }
  ],
  "meshes": [
    {
      "name": "Object_0",
      "primitives": [
        {
          "attributes": {
            "NORMAL": 1,
            "POSITION": 0,
            "TANGENT": 2,
            "TEXCOORD_0": 3
          },
          "indices": 4,
          "material": 1,
          "mode": 4
        }
      ]
    },
    {
      "name": "Object_1",
      "primitives": [
        {
          "attributes": {
            "NORMAL": 6,
            "POSITION": 5,
            "TANGENT": 7,
            "TEXCOORD_0": 8
          },
          "indices": 9,
          "material": 2,
          "mode": 4
        }
      ]
    },
    {
      "name": "Object_2",
      "primitives": [
        {
          "attributes": {
            "NORMAL": 11,
            "POSITION": 10,
            "TANGENT": 12,
            "TEXCOORD_0": 13
          },
          "indices": 14,
          "material": 4,
          "mode": 4
        }
      ]
    },
    {
      "name": "Object_3",
      "primitives": [
        {
          "attributes": {
            "NORMAL": 16,
            "POSITION": 15,
            "TANGENT": 17,
            "TEXCOORD_0": 18
          },
          "indices": 19,
          "material": 0,
          "mode": 4
        }
      ]
    },
    {
      "name": "Object_4",
      "primitives": [
        {
          "attributes": {
            "NORMAL": 21,
            "POSITION": 20,
            "TANGENT": 22,
            "TEXCOORD_0": 23
          },
          "indices": 24,
          "material": 3,
          "mode": 4
        }
      ]
    }
  ],
  "nodes": [
    {
      "children": [
        1
      ],
      "matrix": [
        1.0463838577270508,
        0.0,
        0.0,
        0.0,
        0.0,
        2.3234389028893316e-16,
        -1.0463838577270508,
        0.0,
        0.0,
        1.0463838577270508,
        2.3234389028893316e-16,
        0.0,
        0.0,
        0.0,
        0.0,
        1.0
      ],
      "name": "Sketchfab_model"
    },
    {
      "children": [
        2,
        3,
        4,
        5,
        6
      ],
      "name": "Pagani_zonda.obj.cleaner.materialmerger.gles"
    },
    {
      "mesh": 0,
      "name": "Object_2"
    },
    {
      "mesh": 1,
      "name": "Object_3"
    },
    {
      "mesh": 2,
      "name": "Object_4"
    },
    {
      "mesh": 3,
      "name": "Object_5"
    },
    {
      "mesh": 4,
      "name": "Object_6"
    }
  ],
  "samplers": [
    {
      "magFilter": 9729,
      "minFilter": 9987,
      "wrapS": 10497,
      "wrapT": 10497
    }
  ],
  "scene": 0,
  "scenes": [
    {
      "name": "Sketchfab_Scene",
      "nodes": [
        0
      ]
    }
  ],
  "textures": [
    {
      "sampler": 0,
      "source": 0
    },
    {
      "sampler": 0,
      "source": 1
    },
    {
      "sampler": 0,
      "source": 2
    },
    {
      "sampler": 0,
      "source": 3
    },
    {
      "sampler": 0,
      "source": 4
    },
    {
      "sampler": 0,
      "source": 5
    },
    {
      "sampler": 0,
      "source": 6
    },
    {
      "sampler": 0,
      "source": 7
    },
    {
      "sampler": 0,
      "source": 8
    },
    {
      "sampler": 0,
      "source": 9
    },
    {
      "sampler": 0,
      "source": 10
    },
    {
      "sampler": 0,
      "source": 11
    },
    {
      "sampler": 0,
      "source": 12
    },
    {
      "sampler": 0,
      "source": 13
    },
    {
      "sampler": 0,
      "source": 14
    },
    {
      "sampler": 0,
      "source": 15
    },
    {
      "sampler": 0,
      "source": 16
    },
    {
      "sampler": 0,
      "source": 17
    }
  ]
}
